PathFileType	4	(X/Y/Z)	D:\TRACE\v60_Jaco2_6-2-23\JustArmDRS_Motion3_5-v60.trc
DataRate	CameraRate	NumFrames	NumMarkers	Units	OrigDataRate	OrigDataStartFrame	OrigNumFrames
100.00	100.00	      20	9	mm	100.00	1751	      7000
Frame#	Time	front left toe			Front right toe			aft left toe			aft right toe			Arm			FL body			FR body			AL Body			AR Body			
		X1	Y1	Z1	X2	Y2	Z2	X3	Y3	Z3	X4	Y4	Z4	X5	Y5	Z5	X6	Y6	Z6	X7	Y7	Z7	X8	Y8	Z8	X9	Y9	Z9	

1751	17.500	-195.30479	15.33419	-238.20618	203.78149	15.25127	-172.32193	-284.31808	24.03630	400.35760	125.26065	21.19047	415.29507	23.83838	1176.66309	-576.18567	-58.85300	583.92480	-354.69153	98.04789	583.73578	-333.36462	-177.01988	581.79541	582.41992	-26.81980	573.21857	602.37000	
1752	17.510	-195.36031	15.35209	-238.22888	203.74518	15.27165	-172.30917	-284.34995	23.99761	400.38113	125.21210	21.17355	415.32397	24.20107	1175.96045	-576.62128	-58.85300	583.79907	-354.58347	98.01847	583.64423	-333.36465	-177.07906	581.77661	582.41083	-26.88104	573.22711	602.42279	
1753	17.520	-195.34439	15.37652	-238.16608	203.63594	15.24766	-172.33586	-284.36502	23.92140	400.37198	125.18356	21.14586	415.38766	23.62334	1175.58386	-576.78448	-58.84414	583.62421	-354.51898	97.96250	583.58624	-333.38376	-177.15401	581.72717	582.46423	-26.98457	573.22467	602.46594	
1754	17.530	-195.38528	15.37694	-238.16010	203.49223	15.16510	-172.38760	-284.51489	23.85583	400.33765	125.15424	21.10799	415.37198	23.06572	1175.13794	-577.18933	-58.79438	583.51642	-354.41772	98.41582	583.46265	-333.52859	-177.23642	581.71979	582.47162	-27.05346	573.19647	602.54242	
1755	17.540	-195.38673	15.39815	-238.13185	203.31223	15.14239	-172.45442	-284.55511	23.82871	400.37009	125.14584	21.11951	415.43738	23.11804	1174.65906	-577.34326	-58.75548	583.39771	-354.35031	98.32552	583.39203	-333.50943	-177.28444	581.70624	582.54230	-27.16068	573.17194	602.60675	
1756	17.550	-195.37790	15.41419	-238.11543	203.33585	15.21302	-172.44000	-284.62460	23.76551	400.44846	125.07147	21.07044	415.46054	22.72949	1174.39502	-577.43481	-58.70374	583.22015	-354.19452	98.30669	583.26923	-333.44000	-177.30034	581.68616	582.58014	-27.25149	573.16302	602.65479	
1757	17.560	-195.37199	15.40275	-238.08321	203.29684	15.23965	-172.43773	-284.64685	23.67595	400.40982	125.09647	21.10154	415.56488	22.09916	1174.17212	-577.45630	-58.71882	583.07855	-354.16446	98.39879	583.05719	-333.36517	-177.39185	581.68488	582.62378	-27.31573	573.13440	602.70685	
1758	17.570	-195.40144	15.43038	-238.07695	203.16882	15.17382	-172.51256	-284.66910	23.57814	400.42178	125.08953	21.01457	415.57004	21.71396	1173.76794	-577.53833	-58.74710	582.86469	-354.17526	98.40607	582.84680	-333.26474	-177.39821	581.65533	582.71387	-27.41557	573.08276	602.77026	
1759	17.580	-195.37251	15.46746	-238.00842	203.05788	15.17199	-172.51222	-284.74799	23.54929	400.43253	125.02534	21.01793	415.57349	21.39334	1173.39221	-577.67792	-58.70041	582.43488	-353.98975	98.38475	582.63879	-333.15811	-177.44829	581.63892	582.74280	-27.40121	572.99341	602.80658	
1760	17.590	-195.40121	15.44676	-237.99138	203.04828	15.15245	-172.47635	-284.83902	23.49707	400.44199	125.10253	21.01760	415.70236	21.63700	1173.00195	-577.84619	-59.09357	582.47729	-354.34418	98.38569	582.24164	-333.03662	-177.45161	581.62494	582.80920	-27.49457	572.94745	602.87122	
1761	17.600	-195.38832	15.50298	-237.93272	202.95575	15.14720	-172.49951	-284.86813	23.45010	400.46362	125.12072	20.96282	415.68723	20.99634	1172.84595	-577.82544	-59.09287	582.37604	-354.31934	98.35538	581.96356	-332.95544	-177.45937	581.55835	582.86298	-27.54848	572.88580	602.90900	
1762	17.610	-195.39217	15.51680	-237.91241	203.04645	15.25243	-172.37405	-284.03003	22.77019	400.57938	125.13749	20.93855	415.72272	20.78505	1172.59082	-577.91693	-59.13655	582.28772	-354.29019	98.32782	581.78296	-332.87988	-177.47508	581.52795	582.88983	-27.52139	572.81799	602.93787	
1763	17.620	-195.48251	15.57691	-237.85455	202.96146	15.26813	-172.43423	-284.92062	23.30068	400.53604	125.11105	20.87204	415.78192	20.72826	1172.29517	-577.93127	-59.19395	582.14001	-354.19693	98.24123	581.59930	-332.81238	-177.48810	581.51160	582.97400	-27.50834	572.76343	603.01031	
1764	17.630	-195.50323	15.65987	-237.79277	202.95374	15.30518	-172.37976	-285.00443	23.24847	400.56372	125.12357	20.77775	415.85629	20.54164	1172.06616	-577.94397	-59.28867	581.99927	-354.15976	97.86436	581.47693	-332.69897	-177.43896	581.42584	583.01501	-27.42306	572.65729	603.04871	
1765	17.640	-195.59734	15.74903	-237.70392	202.85396	15.29358	-172.34920	-285.00620	23.17795	400.61713	125.07110	20.63348	415.85962	20.34993	1171.90369	-577.98328	-59.40514	581.82861	-354.11392	97.72395	581.36078	-332.63220	-177.55403	581.34625	583.09174	-27.34590	572.52332	603.10834	
1766	17.650	-195.69627	15.82170	-237.65697	202.84227	15.39333	-172.31969	-285.06482	23.15854	400.62930	124.92442	20.54598	415.86789	20.56826	1171.66919	-578.05267	-59.49463	581.70111	-354.05591	97.61970	581.29236	-332.65146	-177.59930	581.28284	583.14063	-27.39639	572.46600	603.16602	
1767	17.660	-195.64645	15.75791	-237.39885	202.85089	15.47110	-172.30281	-285.02969	23.06511	400.69370	124.93066	20.45772	415.89157	20.26190	1171.68518	-578.01929	-59.15817	581.24286	-353.52594	97.50104	581.27130	-332.58270	-177.52003	581.22937	583.16449	-27.37056	572.39325	603.19989	
1768	17.670	-195.70287	15.82357	-237.33308	202.87836	15.51165	-172.31017	-285.06866	23.01997	400.71310	124.93925	20.42332	415.90219	19.85517	1171.77966	-577.79535	-59.63788	581.60010	-353.96277	97.42246	581.24127	-332.48441	-177.51382	581.18274	583.18903	-27.33204	572.28015	603.21307	
1769	17.680	-195.69989	15.85516	-237.26860	202.80132	15.48462	-172.27103	-285.10837	22.94282	400.75912	124.84406	20.22417	415.91837	19.73385	1171.81848	-577.63770	-59.31866	581.27722	-353.49280	97.30878	581.27454	-332.42917	-177.58536	581.11102	583.25519	-27.43242	572.18597	603.24640	
1770	17.690	-195.82323	15.68600	-237.03729	202.77472	15.55738	-172.28172	-285.09030	22.85512	400.78070	124.83170	20.15827	416.01740	19.68120	1171.85132	-577.42657	-59.46130	581.32507	-353.47711	97.28344	581.25793	-332.36316	-177.57748	580.99243	583.33545	-27.45085	572.09094	603.28949	
